<?xml version="1.0" encoding="UTF-8" standalone="no"?>
<svg width="65px" height="77px" viewBox="0 0 65 77" version="1.1" xmlns="http://www.w3.org/2000/svg" xmlns:xlink="http://www.w3.org/1999/xlink" xmlns:sketch="http://www.bohemiancoding.com/sketch/ns">
    <defs></defs>
    <g stroke="none" stroke-width="1" fill="none" fill-rule="evenodd" sketch:type="MSPage">
        <g id="noun_16295_cc" sketch:type="MSLayerGroup" fill="#ffffff">
            <g id="Group" sketch:type="MSShapeGroup">
                <path d="M57.93,17.18 L50.249,17.18 L50.249,2.184 C50.249,1.056 49.334,0.14 48.204,0.14 L17.219,0.14 C16.092,0.14 15.176,1.056 15.176,2.184 L15.176,17.18 L7.493,17.18 C3.885,17.18 0.948,20.116 0.948,23.725 L0.948,53.455 C0.948,57.065 3.885,60.002 7.493,60.002 L15.176,60.002 L15.176,74.904 C15.176,76.033 16.092,76.948 17.219,76.948 L48.204,76.948 C49.334,76.948 50.249,76.033 50.249,74.904 L50.249,60.002 L57.93,60.002 C61.542,60.002 64.478,57.065 64.478,53.455 L64.478,23.725 C64.478,20.116 61.542,17.18 57.93,17.18 L57.93,17.18 Z M19.264,4.227 L46.161,4.227 L46.161,17.18 L19.264,17.18 L19.264,4.227 L19.264,4.227 Z M46.161,72.861 L19.264,72.861 L19.264,60.002 L19.264,55.098 L19.264,42.168 L46.161,42.168 L46.161,55.098 L46.161,60.002 L46.161,72.861 L46.161,72.861 Z M59.574,53.455 C59.574,54.361 58.836,55.098 57.929,55.098 L50.248,55.098 L50.248,40.125 C50.248,39.474 49.923,38.918 49.448,38.544 C49.1,38.271 48.679,38.081 48.203,38.081 L17.219,38.081 C16.742,38.081 16.325,38.271 15.976,38.544 C15.501,38.919 15.176,39.474 15.176,40.125 L15.176,55.098 L7.493,55.098 C6.589,55.098 5.852,54.362 5.852,53.455 L5.852,23.725 C5.852,22.82 6.588,22.083 7.493,22.083 L15.176,22.083 L19.264,22.083 L46.161,22.083 L50.249,22.083 L57.93,22.083 C58.836,22.083 59.575,22.82 59.575,23.725 L59.575,53.455 L59.574,53.455 Z" id="Shape"></path>
                <circle id="Oval" cx="13.821" cy="30.363" r="2.846"></circle>
            </g>
        </g>
    </g>
</svg>
